inDegrees=yes
name=ik_Xsens_quaternion
DataType=double
version=3
OpenSimVersion=4.4-2022-07-23-0e9fedc
endheader
time	pelvis_tilt	pelvis_list	pelvis_rotation	pelvis_tx	pelvis_ty	pelvis_tz	hip_flexion_r	hip_adduction_r	hip_rotation_r	knee_angle_r	knee_angle_r_beta	ankle_angle_r	subtalar_angle_r	mtp_angle_r	hip_flexion_l	hip_adduction_l	hip_rotation_l	knee_angle_l	knee_angle_l_beta	ankle_angle_l	subtalar_angle_l	mtp_angle_l	lumbar_extension	lumbar_bending	lumbar_rotation	arm_flex_r	arm_add_r	arm_rot_r	elbow_flex_r	pro_sup_r	wrist_flex_r	wrist_dev_r	arm_flex_l	arm_add_l	arm_rot_l	elbow_flex_l	pro_sup_l	wrist_flex_l	wrist_dev_l
52.15	0	0	0	0	0.93	0	4.594144125593695e-49	0	0	2.426570649309934e-20	-8.314585784430119e-37	0	0	0	4.594144125593695e-49	0	0	2.426570649309934e-20	-8.314585784430119e-37	0	0	0	0	0	0	3.384861420591111e-07	8.718683578933939e-05	-1.605440497935649e-05	-1.609751230732215e-05	1.598267446140961e-05	0	0	-292.9470902966838	-54.88931812523273	-350.1262727542003	131.945817343602	-68.03191161412735	0	0
52.16666666666666	0	0	0	0	0.93	0	4.594144125593695e-49	0	0	2.426570649309934e-20	-8.314585784430119e-37	0	0	0	4.594144125593695e-49	0	0	2.426570649309934e-20	-8.314585784430119e-37	0	0	0	0	0	0	3.384861420591111e-07	8.718683578933939e-05	-1.605440497935649e-05	-1.609751230732215e-05	1.598267446140961e-05	0	0	-292.9661268068248	-54.89897525981073	-350.1385802401413	131.9565678059045	-68.02575836575562	0	0
52.18333333333333	0	0	0	0	0.93	0	3.515256784880434e-35	0	0	2.426570649309934e-20	-8.314585784430119e-37	0	0	0	3.515256784880434e-35	0	0	2.426570649309934e-20	-8.314585784430119e-37	0	0	0	0	0	0	3.384861420591111e-07	8.718683578933939e-05	-1.605440497935649e-05	-1.609751230732215e-05	1.598267446140961e-05	0	0	-292.9802288444936	-54.91589758247412	-350.1418248580214	131.9477835255924	-68.01192728207096	0	0
52.2	0	0	0	0	0.93	0	3.64727213662895e-35	0	0	2.426570649309934e-20	-8.314585784430119e-37	0	0	0	3.64727213662895e-35	0	0	2.426570649309934e-20	-8.314585784430119e-37	0	0	0	0	0	0	3.384861420591111e-07	8.718683578933939e-05	-1.605440497935649e-05	-1.609751230732215e-05	1.598267446140961e-05	0	0	-292.9968871806261	-54.93355584062252	-350.1382529992482	131.9430190666223	-67.99903068943598	0	0
52.21666666666667	0	0	0	0	0.93	0	4.594144125593695e-49	0	0	2.426570649309934e-20	-8.314585784430119e-37	0	0	0	4.594144125593695e-49	0	0	2.426570649309934e-20	-8.314585784430119e-37	0	0	0	0	0	0	3.384861420591111e-07	8.718683578933939e-05	-1.605440497935649e-05	-1.609751230732215e-05	1.598267446140961e-05	0	0	-293.0146930194568	-54.94317998835982	-350.1356247562957	131.9473784079941	-67.98661867897677	0	0
52.23333333333333	0	2.758691436281348e-33	0	0	0.93	0	5.10671430681686e-35	0	0	2.426570649309934e-20	-5.244730724696924e-23	0	0	0	5.10671430681686e-35	0	0	2.426570649309934e-20	-5.244730724696924e-23	0	0	0	0	2.758691436281348e-33	0	3.384861420591111e-07	8.718683578933939e-05	-1.605440497935649e-05	-1.609751230732215e-05	1.598267446140961e-05	0	0	-293.0291019041101	-54.95451955506048	-350.134755586656	131.9441329878341	-67.97632472288146	0	0
52.25	0	1.121617218162523e-52	0	0	0.93	0	4.594144125593695e-49	0	0	2.426570649309934e-20	-1.048627123988443e-22	0	0	0	4.594144125593695e-49	0	0	2.426570649309934e-20	-1.048627123988443e-22	0	0	0	0	1.121617218162523e-52	0	3.384861420591111e-07	8.718683578933939e-05	-1.605440497935649e-05	-1.609751230732215e-05	1.598267446140961e-05	0	0	-293.048474497102	-54.96241959589417	-350.1406675868271	131.9335123154231	-67.95530827185748	0	0
52.26666666666667	0	4.053532748763186e-72	0	0	0.93	0	4.594144125593695e-49	0	0	2.426570649309934e-20	-1.048627123988443e-22	0	0	0	4.594144125593695e-49	0	0	2.426570649309934e-20	-1.048627123988443e-22	0	0	0	0	4.053532748763186e-72	0	3.384861420591111e-07	8.718683578933939e-05	-1.605440497935649e-05	-1.609751230732215e-05	1.598267446140961e-05	0	0	-293.0712310734676	-54.96684224127387	-350.1400130269811	131.9292828006264	-67.93916381686297	0	0
52.28333333333333	0	0	0	0	0.93	0	0	0	0	0	-2.350988701644575e-38	0	0	0	0	0	0	0	-2.350988701644575e-38	0	0	0	0	0	0	3.384861420591111e-07	8.718683578933939e-05	-1.605440497935649e-05	-1.609751230732215e-05	1.598267446140961e-05	0	0	-293.1076057529884	-54.96383243495853	-350.1584219713129	131.9432291491188	-67.93635030174627	0	0
52.3	0	0	0	0	0.93	0	0	0	0	0	-3.95943740742319e-37	0	0	0	0	0	0	0	-3.95943740742319e-37	0	0	0	0	0	0	3.384861420591111e-07	8.718683578933939e-05	-1.605440497935649e-05	-1.609751230732215e-05	1.598267446140961e-05	0	0	-293.1259251193916	-54.95405720374248	-350.149390594456	131.9434736697631	-67.92539873083642	0	0
52.31666666666666	0	0	0	0	0.93	0	4.594144125593695e-49	0	0	2.426570649309934e-20	5.241540515187462e-23	0	0	0	4.594144125593695e-49	0	0	2.426570649309934e-20	5.241540515187462e-23	0	0	0	0	0	0	3.384861420591111e-07	8.718683578933939e-05	-1.605440497935649e-05	-1.609751230732215e-05	1.598267446140961e-05	0	0	-293.1361904555365	-54.95775330695885	-350.1465596776607	131.9390872918503	-67.93291176368348	0	0
52.33333333333334	0	0	0	0	0.93	0	4.594144125593695e-49	0	0	2.426570649309934e-20	-3.937906075254663e-37	0	0	0	4.594144125593695e-49	0	0	2.426570649309934e-20	-3.937906075254663e-37	0	0	0	0	0	0	3.384861420591111e-07	8.718683578933939e-05	-1.605440497935649e-05	-1.609751230732215e-05	1.598267446140961e-05	0	0	-293.1460439463341	-54.95103650497789	-350.1462157494763	131.9440873917369	-67.93744545042121	0	0
52.35	0	0	0	0	0.93	0	4.594144125593695e-49	0	0	2.426570649309934e-20	5.241540515187462e-23	0	0	0	4.594144125593695e-49	0	0	2.426570649309934e-20	5.241540515187462e-23	0	0	0	0	0	0	3.384861420591111e-07	8.718683578933939e-05	-1.605440497935649e-05	-1.609751230732215e-05	1.598267446140961e-05	0	0	-293.1639629041072	-54.95010183651493	-350.1480851014007	131.9391387207062	-67.92602693858542	0	0
52.36666666666667	0	0	0	0	0.93	0	4.594144125593695e-49	0	0	2.426570649309934e-20	5.241540515187537e-23	0	0	0	4.594144125593695e-49	0	0	2.426570649309934e-20	5.241540515187537e-23	0	0	0	0	0	0	3.384861420591111e-07	8.718683578933939e-05	-1.605440497935649e-05	-1.609751230732215e-05	1.598267446140961e-05	0	0	-293.1777541375994	-54.95547649848125	-350.1415824974091	131.9355725134156	-67.91243709336933	0	0
52.38333333333333	0	0	0	0	0.93	0	4.594144125593695e-49	0	0	2.426570649309934e-20	5.241540515187537e-23	0	0	0	4.594144125593695e-49	0	0	2.426570649309934e-20	5.241540515187537e-23	0	0	0	0	0	0	3.384861420591111e-07	8.718683578933939e-05	-1.605440497935649e-05	-1.609751230732215e-05	1.598267446140961e-05	0	0	-293.196908308435	-54.96091130808988	-350.1271523895043	131.9375580048396	-67.89545936837706	0	0
52.4	0	0	0	0	0.93	0	4.594144125593695e-49	0	0	2.426570649309934e-20	5.241540515187537e-23	0	0	0	4.594144125593695e-49	0	0	2.426570649309934e-20	5.241540515187537e-23	0	0	0	0	0	0	3.384861420591111e-07	8.718683578933939e-05	-1.605440497935649e-05	-1.609751230732215e-05	1.598267446140961e-05	0	0	-293.2118493726649	-54.97233021676649	-350.1136651465144	131.9476477178811	-67.88523923275393	0	0
52.41666666666666	0	0	0	0	0.93	0	4.594144125593695e-49	0	0	2.426570649309934e-20	5.241540515187537e-23	0	0	0	4.594144125593695e-49	0	0	2.426570649309934e-20	5.241540515187537e-23	0	0	0	0	0	0	3.384861420591111e-07	8.718683578933939e-05	-1.605440497935649e-05	-1.609751230732215e-05	1.598267446140961e-05	0	0	-293.2246432326453	-54.98143543084432	-350.1107065205501	131.9588519055926	-67.87172807574717	0	0
52.43333333333333	0	0	0	0	0.93	0	2.297072062796848e-49	0	0	1.213285324654967e-20	2.620770257593769e-23	0	0	0	2.297072062796848e-49	0	0	1.213285324654967e-20	2.620770257593769e-23	0	0	0	0	0	0	3.384861420591111e-07	8.718683578933939e-05	-1.605440497935649e-05	-1.609751230732215e-05	1.598267446140961e-05	0	0	-293.2550482032148	-54.98937290896446	-350.1305255470864	131.9697271860159	-67.8537635437404	0	0
52.45	0	0	0	0	0.93	0	-1.169069481308701e-35	0	0	2.426570649309934e-20	-2.628171355310037e-23	0	0	0	-1.169069481308701e-35	0	0	2.426570649309934e-20	-2.628171355310037e-23	0	0	0	0	0	0	3.384861420591111e-07	8.718683578933939e-05	-1.605440497935649e-05	-1.609751230732215e-05	1.598267446140961e-05	0	0	-293.2652168427451	-55.00117441722927	-350.1255992031773	131.9712733118671	-67.84877035991035	0	0
52.46666666666667	0	0	0	0	0.93	0	4.594144125593695e-49	0	0	2.426570649309934e-20	2.613369159877464e-23	0	0	0	4.594144125593695e-49	0	0	2.426570649309934e-20	2.613369159877464e-23	0	0	0	0	0	0	3.384861420591111e-07	8.718683578933939e-05	-1.605440497935649e-05	-1.609751230732215e-05	1.598267446140961e-05	0	0	-293.2753470965786	-55.01227192708476	-350.1248263776472	131.9781101019441	-67.84784159491052	0	0
52.48333333333333	0	0	0	0	0.93	0	4.594144125593695e-49	0	0	2.426570649309934e-20	2.613369159877464e-23	0	0	0	4.594144125593695e-49	0	0	2.426570649309934e-20	2.613369159877464e-23	0	0	0	0	0	0	3.384861420591111e-07	8.718683578933939e-05	-1.605440497935649e-05	-1.609751230732215e-05	1.598267446140961e-05	0	0	-293.2894271151209	-55.01945376333767	-350.1308080598154	131.9714440121015	-67.84461439267236	0	0
52.5	0	0	0	0	0.93	0	4.594144125593695e-49	0	0	2.426570649309934e-20	7.854909675065114e-23	0	0	0	4.594144125593695e-49	0	0	2.426570649309934e-20	7.854909675065114e-23	0	0	0	0	0	0	3.384861420591111e-07	8.718683578933939e-05	-1.605440497935649e-05	-1.609751230732215e-05	1.598267446140961e-05	0	0	-293.3044721463969	-55.02876349692856	-350.1360728847686	131.9580160843481	-67.83623745840733	0	0
52.51666666666667	0	0	0	0	0.93	0	9.681603121631958e-35	0	0	2.426570649309934e-20	2.604695852490414e-23	0	0	0	9.681603121631958e-35	0	0	2.426570649309934e-20	2.604695852490414e-23	0	0	0	0	0	0	3.384861420591111e-07	8.718683578933939e-05	-1.605440497935649e-05	-1.609751230732215e-05	1.598267446140961e-05	0	0	-293.3213515161389	-55.04419354957637	-350.1423956753439	131.9418095780935	-67.82876801187146	0	0
52.53333333333333	0	0	0	0	0.93	0	2.297072062796848e-49	0	0	1.213285324654967e-20	1.302347926245206e-23	0	0	0	2.297072062796848e-49	0	0	1.213285324654967e-20	1.302347926245206e-23	0	0	0	0	0	0	3.384861420591111e-07	8.718683578933939e-05	-1.605440497935649e-05	-1.609751230732215e-05	1.598267446140961e-05	0	0	-293.3527094539419	-55.06573747968381	-350.1689813664264	131.9286169346975	-67.81868963473045	0	0
52.55	0	0	0	0	0.93	0	3.445608094195272e-49	0	0	1.819927986982451e-20	4.907916331074531e-23	0	0	0	3.445608094195272e-49	0	0	1.819927986982451e-20	4.907916331074531e-23	0	0	0	0	0	0	3.384861420591111e-07	8.718683578933939e-05	-1.605440497935649e-05	-1.609751230732215e-05	1.598267446140961e-05	0	0	-293.4015468599306	-55.09594166408754	-350.2166090330667	131.9203516517089	-67.81297898054356	0	0
52.56666666666666	0	0	0	0	0.93	0	0	0	0	0	0	0	0	0	0	0	0	0	0	0	0	0	0	0	0	3.384861420591111e-07	8.718683578933939e-05	-1.605440497935649e-05	-1.609751230732215e-05	1.598267446140961e-05	0	0	-293.4463249489424	-55.1353242812385	-350.2555633510026	131.9147832247467	-67.80361273657189	0	0
